<svg width="34" height="34" viewBox="0 0 34 34" fill="none" xmlns="http://www.w3.org/2000/svg">
<path d="M26 1.00195H27V0.00195312H26V1.00195ZM25.2929 33.2091C25.6834 33.5996 26.3166 33.5996 26.7071 33.2091L33.0711 26.8451C33.4616 26.4546 33.4616 25.8214 33.0711 25.4309C32.6805 25.0404 32.0474 25.0404 31.6569 25.4309L26 31.0877L20.3431 25.4309C19.9526 25.0404 19.3195 25.0404 18.9289 25.4309C18.5384 25.8214 18.5384 26.4546 18.9289 26.8451L25.2929 33.2091ZM0 2.00195H26V0.00195312H0L0 2.00195ZM25 1.00195V32.502H27V1.00195H25Z" fill="black"/>
</svg>
