<svg width="50" height="50" viewBox="0 0 50 50" fill="none" xmlns="http://www.w3.org/2000/svg">
<path fill-rule="evenodd" clip-rule="evenodd" d="M25.013 0.00593081C28.4727 0.00593081 31.9327 -0.0100848 35.3924 0.0105207C38.6474 0.0299542 41.7044 0.772239 44.3531 2.751C47.8121 5.33513 49.5822 8.86496 49.9116 13.1243C50.0276 14.6233 49.9915 16.1354 49.9935 17.6415C50.0013 23.4822 49.997 29.3231 49.9964 35.1639C49.9961 37.5495 49.6644 39.8786 48.6549 42.06C46.6072 46.485 43.0352 48.904 38.3225 49.7424C37.3398 49.9171 36.3261 49.9824 35.3264 49.9854C28.4254 50.0057 21.5242 50.001 14.6232 49.9939C11.0345 49.9902 7.75242 49.0425 4.95549 46.7143C2.11384 44.3491 0.614331 41.2556 0.147876 37.6288C0.0674073 37.0032 0.0181398 36.3688 0.0175538 35.7384C0.0108155 28.484 -0.0329833 21.229 0.0381105 13.9753C0.0769776 10.0121 1.39661 6.49822 4.3469 3.72942C6.79412 1.43293 9.76877 0.232982 13.0744 0.11555C17.0492 -0.025661 21.0329 0.0821027 25.0128 0.0821027C25.0129 0.0566632 25.0129 0.0312726 25.013 0.00593081ZM24.9739 45.3793C28.303 45.3793 31.632 45.3927 34.9609 45.3701C35.8315 45.3642 36.7148 45.321 37.569 45.1665C40.8321 44.5766 43.3129 42.9399 44.613 39.7627C45.2735 38.1487 45.4892 36.4168 45.5174 34.7394C45.6266 28.2321 45.565 21.7218 45.5574 15.2125C45.5565 14.5073 45.5489 13.7943 45.4491 13.0985C45.0017 9.97409 43.6472 7.41321 40.7718 5.85588C39.1668 4.98669 37.4245 4.65852 35.6136 4.65793C28.6394 4.65588 21.6652 4.65383 14.6911 4.66218C14.0608 4.66296 13.425 4.69783 12.8013 4.78547C9.24929 5.2842 6.63294 7.03479 5.32356 10.4788C4.79514 11.8686 4.62629 13.3249 4.626 14.8035C4.62498 21.6103 4.61843 28.4169 4.63494 35.2238C4.63694 36.0566 4.69905 36.9013 4.84812 37.7196C5.5094 41.3502 7.53386 43.8456 11.1393 44.849C12.3407 45.1833 13.6251 45.3309 14.8757 45.3561C18.2406 45.4237 21.6077 45.3791 24.9739 45.3793Z" fill="black"/>
<path fill-rule="evenodd" clip-rule="evenodd" d="M37.8834 24.9214C37.8802 32.0394 32.0726 37.829 24.9526 37.8116C17.83 37.7943 12.094 32.0452 12.0898 24.9195C12.0857 17.8018 17.8847 12.0118 25.0099 12.0195C32.0737 12.0272 37.8865 17.8528 37.8834 24.9214ZM24.9915 33.1645C29.5329 33.168 33.2732 29.4304 33.2653 24.8967C33.2575 20.3944 29.5267 16.6566 25.0223 16.6383C20.4875 16.6199 16.7489 20.3461 16.7393 24.8939C16.7297 29.4482 20.4341 33.1609 24.9915 33.1645Z" fill="black"/>
<path fill-rule="evenodd" clip-rule="evenodd" d="M38.3624 14.6169C36.7501 14.6025 35.4792 13.3123 35.4844 11.6954C35.4895 10.0601 36.7923 8.77791 38.4371 8.78914C40.031 8.80017 41.3299 10.1157 41.3251 11.7141C41.3202 13.3352 39.9972 14.6315 38.3624 14.6169Z" fill="black"/>
</svg>
