<svg width="24" height="25" viewBox="0 0 24 25" fill="none" xmlns="http://www.w3.org/2000/svg">
<path d="M12.5599 21.3207C12.2247 21.5598 11.7753 21.5598 11.4401 21.3207C6.61138 17.8773 1.48557 10.7971 6.6667 5.68128C8.08118 4.28463 9.99963 3.5 12 3.5C14.0004 3.5 15.9188 4.28463 17.3333 5.68128C22.5144 10.7971 17.3886 17.8773 12.5599 21.3207Z" stroke="white" stroke-width="1.5" stroke-linecap="round" stroke-linejoin="round"/>
<path d="M12 12.5C13.1046 12.5 14 11.6046 14 10.5C14 9.39543 13.1046 8.5 12 8.5C10.8954 8.5 10 9.39543 10 10.5C10 11.6046 10.8954 12.5 12 12.5Z" stroke="white" stroke-width="1.5" stroke-linecap="round" stroke-linejoin="round"/>
</svg>
