<svg width="50" height="50" viewBox="0 0 50 50" fill="none" xmlns="http://www.w3.org/2000/svg">
<g clip-path="url(#clip0_155_844)">
<path d="M49.733 36.5015C49.6724 36.371 49.616 36.2628 49.5636 36.1761C48.6961 34.6137 47.0383 32.696 44.5913 30.4224L44.5396 30.3703L44.5137 30.3448L44.4875 30.3186H44.4613C43.3507 29.2599 42.6474 28.5481 42.3529 28.1836C41.814 27.4893 41.6933 26.7866 41.9878 26.0746C42.1958 25.5366 42.9775 24.4005 44.3308 22.6647C45.0426 21.7447 45.6064 21.0075 46.0227 20.452C49.0254 16.4601 50.3272 13.9092 49.9278 12.7983L49.7727 12.5387C49.6685 12.3824 49.3995 12.2395 48.9662 12.1091C48.5318 11.979 47.9766 11.9574 47.2995 12.0441L39.8022 12.0959C39.6808 12.0529 39.5074 12.0569 39.2814 12.1091C39.0557 12.1612 38.9429 12.1874 38.9429 12.1874L38.8124 12.2526L38.7088 12.3309C38.622 12.3827 38.5265 12.4738 38.4223 12.604C38.3186 12.7338 38.2319 12.886 38.1626 13.0595C37.3464 15.1595 36.4183 17.112 35.3768 18.9168C34.7346 19.9931 34.1448 20.9258 33.6062 21.7155C33.0683 22.5049 32.6171 23.0866 32.2529 23.4594C31.8882 23.8326 31.559 24.1316 31.2634 24.3575C30.9682 24.5834 30.7429 24.6789 30.5869 24.6439C30.4305 24.609 30.2833 24.5744 30.1439 24.5397C29.9011 24.3834 29.7057 24.1709 29.5585 23.9019C29.4106 23.6329 29.311 23.2944 29.259 22.8865C29.2072 22.4784 29.1765 22.1273 29.1678 21.8322C29.1597 21.5374 29.1634 21.1204 29.181 20.5825C29.199 20.0442 29.2072 19.68 29.2072 19.4891C29.2072 18.8295 29.22 18.1136 29.2458 17.3413C29.2721 16.569 29.2933 15.9571 29.3111 15.5063C29.3288 15.055 29.337 14.5776 29.337 14.0743C29.337 13.571 29.3064 13.1763 29.2458 12.8898C29.186 12.6036 29.0942 12.3259 28.9732 12.0566C28.8515 11.7877 28.6733 11.5796 28.4395 11.4319C28.2053 11.2843 27.914 11.1673 27.5674 11.0803C26.6475 10.8721 25.4761 10.7595 24.0527 10.742C20.8248 10.7073 18.7507 10.9158 17.8308 11.367C17.4664 11.5577 17.1366 11.8182 16.8417 12.1477C16.5292 12.5297 16.4856 12.7381 16.7112 12.7724C17.7527 12.9284 18.49 13.3016 18.9239 13.8917L19.0803 14.2043C19.2019 14.4299 19.3234 14.8293 19.4449 15.4019C19.5663 15.9745 19.6446 16.608 19.6791 17.3018C19.7657 18.569 19.7657 19.6537 19.6791 20.556C19.5922 21.4587 19.5101 22.1614 19.4318 22.6648C19.3535 23.1681 19.2364 23.5759 19.0803 23.8882C18.9239 24.2006 18.8199 24.3916 18.7677 24.4609C18.7157 24.5302 18.6723 24.5738 18.6378 24.591C18.4122 24.6774 18.1776 24.7214 17.9348 24.7214C17.6916 24.7214 17.3967 24.5998 17.0497 24.3567C16.7027 24.1136 16.3427 23.7797 15.9695 23.3545C15.5963 22.9291 15.1754 22.3347 14.7066 21.5711C14.2382 20.8076 13.7522 19.9052 13.2489 18.8639L12.8325 18.1087C12.5721 17.6229 12.2165 16.9155 11.7653 15.9872C11.3137 15.0585 10.9146 14.1602 10.5677 13.2924C10.429 12.928 10.2207 12.6505 9.94301 12.4596L9.81271 12.3812C9.72609 12.3119 9.58704 12.2384 9.39629 12.1599C9.20526 12.0816 9.00594 12.0255 8.7975 11.9909L1.66448 12.0427C0.935573 12.0427 0.441006 12.2078 0.180592 12.5376L0.0763716 12.6936C0.0243071 12.7805 -0.00195312 12.9193 -0.00195312 13.1103C-0.00195312 13.3013 0.0501114 13.5356 0.154332 13.8131C1.19562 16.2604 2.328 18.6206 3.55147 20.8941C4.77494 23.1676 5.83812 24.999 6.74036 26.3866C7.64278 27.7752 8.56262 29.0858 9.49987 30.3176C10.4371 31.5499 11.0575 32.3396 11.3611 32.6866C11.665 33.0342 11.9037 33.294 12.0772 33.4676L12.7281 34.0922C13.1447 34.5089 13.7563 35.0078 14.5634 35.5891C15.3706 36.1707 16.2642 36.7433 17.2448 37.3078C18.2256 37.8714 19.3665 38.3314 20.6683 38.6871C21.9699 39.0431 23.2368 39.186 24.4691 39.1171H27.463C28.0701 39.0646 28.5301 38.8737 28.8428 38.5442L28.9464 38.4137C29.016 38.3101 29.0812 38.1492 29.1414 37.9326C29.2023 37.7157 29.2326 37.4767 29.2326 37.2168C29.2148 36.4706 29.2716 35.7982 29.4015 35.1995C29.5312 34.6009 29.6791 34.1497 29.8445 33.8458C30.0098 33.5421 30.1964 33.2859 30.404 33.0782C30.6121 32.87 30.7603 32.7439 30.8473 32.7005C30.9338 32.6569 31.0028 32.6272 31.0549 32.6095C31.4714 32.4707 31.9616 32.6051 32.5262 33.0133C33.0903 33.4211 33.6194 33.9247 34.1144 34.5233C34.609 35.1223 35.2033 35.7944 35.8974 36.5406C36.5919 37.287 37.1992 37.8418 37.7197 38.2068L38.2401 38.5192C38.5877 38.7276 39.039 38.9186 39.5944 39.0921C40.1489 39.2655 40.6347 39.3089 41.0519 39.2222L47.7161 39.1182C48.3752 39.1182 48.8881 39.0091 49.2519 38.7925C49.6165 38.5756 49.833 38.3366 49.9029 38.0767C49.9725 37.8165 49.9763 37.5212 49.9161 37.1911C49.8543 36.8619 49.7935 36.6316 49.733 36.5015Z" fill="black"/>
</g>
<defs>
<clipPath id="clip0_155_844">
<rect width="50" height="50" fill="white" transform="translate(-0.00195312)"/>
</clipPath>
</defs>
</svg>
